:SAMPLES-PER-SECOND 30
:FULLY-SPECIFIED
:DEGREES
461
root  -52.5518 37.8533 16.5832 -176.818 -11.3858 174.97
RightUpLeg  -34.0872 8.15584 -20.8001
RightLeg  50.0419 -4.44604 -6.03846
RightFoot  -3.26177 -0.178331 2.16342
RightToes  0.000482159 0.542163 -0.142577
Spine  44.9833 -1.76405 3.28533
Spine1  11.4328 -0.0103636 -1.34815
HEad  -3.6446 -3.11526 -0.610483
LeftShoulder1  9.94685 -17.8156 -40.3611
LeftArm  -19.5813 -37.2873 -30.6432
LeftForeArm  9.97568 -26.8584 -5.24617
LeftHand  -0.25398 0.0180481 5.50724
RightShoulder  4.43219 11.6126 23.1012
RightArm  9.28409 34.94 42.7259
RightForeArm  -23.9673 36.177 9.46857
RightHand  -2.12113 8.6486 -17.856
LeftUpLeg  -31.5122 29.0452 1.35584
LeftLeg  25.9864 -1.23695 -0.316125
LeftFoot  5.75186 0.792468 -5.53769
LeftToes  1.06248e-005 4.65855e-005 -8.18498e-006
462
root  -53.8098 38.3409 17.0015 -174.496 -9.40959 175.686
RightUpLeg  -36.5292 0.673246 -15.6477
RightLeg  46.7088 -3.71592 -4.55187
RightFoot  -5.03877 -0.250726 3.98423
RightToes  0.000482159 0.542163 -0.142577
Spine  47.2453 -2.15176 4.41482
Spine1  11.7105 0.464485 -2.29571
HEad  -6.73548 -4.33076 0.204615
LeftShoulder1  9.75665 -17.9019 -39.3399
LeftArm  -22.3739 -40.3133 -30.1433
LeftForeArm  10.7102 -26.4803 -5.12073
LeftHand  -0.25398 0.0180481 5.50724
RightShoulder  4.29866 11.6426 22.1061
RightArm  8.26615 40.2817 43.7855
RightForeArm  -22.7982 32.0815 8.22095
RightHand  -2.04179 9.308 -16.4803
LeftUpLeg  -33.4385 31.184 -1.95765
LeftLeg  23.4757 -1.15834 -0.215072
LeftFoot  6.32893 0.662878 -4.51435
LeftToes  1.06248e-005 4.65855e-005 -8.18498e-006
463
root  -54.894 38.8028 17.3123 -171.809 -7.72612 176.517
RightUpLeg  -38.7534 -6.54304 -8.62011
RightLeg  42.1845 -4.13635 -4.26731
RightFoot  -6.5837 -0.291522 5.88137
RightToes  0.000482159 0.542163 -0.142577
Spine  48.9986 -2.21375 4.94928
Spine1  12.0037 0.856219 -2.66505
HEad  -9.74191 -5.19627 1.08048
LeftShoulder1  9.64355 -17.9636 -38.7117
LeftArm  -24.5287 -43.2019 -28.5741
LeftForeArm  10.1223 -25.984 -5.04065
LeftHand  -0.25398 0.0180481 5.50724
RightShoulder  3.9609 11.6073 19.7844
RightArm  8.01047 45.4063 45.7566
RightForeArm  -21.9987 28.0053 7.09886
RightHand  -2.10503 10.2485 -16.0004
LeftUpLeg  -35.8465 32.8539 -5.23429
LeftLeg  20.6702 -1.51094 -0.26687
LeftFoot  6.9803 0.555754 -3.70585
LeftToes  1.06248e-005 4.65855e-005 -8.18498e-006
464
root  -55.8506 39.1681 17.5448 -169.302 -6.24825 177.055
RightUpLeg  -40.6215 -13.3837 -0.741712
RightLeg  37.2301 -6.40544 -5.45418
RightFoot  -7.53002 -0.241295 5.68102
RightToes  0.000482159 0.542163 -0.142577
Spine  50.7649 -2.11445 4.99222
Spine1  12.162 1.27281 -3.18386
HEad  -12.3944 -5.92819 2.19655
LeftShoulder1  9.54013 -18.2879 -37.6111
LeftArm  -26.6085 -45.7794 -26.5708
LeftForeArm  9.08513 -24.9782 -4.87054
LeftHand  -0.25398 0.0180481 5.50724
RightShoulder  3.55315 11.3279 17.3526
RightArm  8.0067 50.0398 48.0667
RightForeArm  -20.8855 24.1379 6.25251
RightHand  -2.12744 10.9323 -15.5242
LeftUpLeg  -38.0716 34.3287 -8.58536
LeftLeg  18.1935 -2.04685 -0.619414
LeftFoot  6.80409 0.362206 -2.52726
LeftToes  1.06248e-005 4.65855e-005 -8.18498e-006
465
root  -56.6638 39.3671 17.7197 -167.137 -5.27266 177.036
RightUpLeg  -41.8577 -19.4066 6.67888
RightLeg  32.0601 -7.84748 -5.53799
RightFoot  -8.92168 -0.157096 4.48792
RightToes  0.000482159 0.542163 -0.142577
Spine  52.2524 -1.83215 4.43226
Spine1  12.5262 1.36601 -3.17699
HEad  -14.7353 -6.68363 3.46039
LeftShoulder1  9.47762 -18.7667 -36.4168
LeftArm  -29.043 -48.3949 -24.0943
LeftForeArm  7.99237 -23.1063 -4.53808
LeftHand  -0.25398 0.0180481 5.50724
RightShoulder  3.22637 11.1608 15.2368
RightArm  6.01221 54.4414 49.6247
RightForeArm  -18.0918 20.0306 6.4405
RightHand  -2.16505 11.5498 -15.2423
LeftUpLeg  -39.3558 34.2076 -10.754
LeftLeg  16.192 -0.99943 -1.47868
LeftFoot  6.82928 0.220898 -1.64323
LeftToes  1.06248e-005 4.65855e-005 -8.18498e-006
